<svg xmlns="http://www.w3.org/2000/svg" width="612" height="792" viewBox="0 0 612 792"><path d="M128.908 90.51h28.59l17.576 28.823L192.65 90.51h28.59v82.02h-27.3v-40.66l-18.866 29.177h-.468L155.74 131.87v40.66H128.91V90.51zM230.61 90.51h69.95v22.496h-43v8.32h40.072v19.8H257.56v8.906h43.587v22.497H230.61V90.51zM337.115 89.923H364.3l34.564 82.606h-29.762l-4.335-11.015H336.06l-4.22 11.014H302.55l34.567-82.607zm20.856 52.14l-7.498-19.918-7.5 19.92h15zM402.255 90.51h25.66l29.177 36.205V90.51h27.184v82.02h-24.37l-30.466-37.847v37.847h-27.185V90.51z"/><title>HTML5 Logo</title><path fill="#895C21" d="M128.668 652.845L89.21 210.272h433.58l-39.5 442.503L305.734 702z"/><path fill="#A58537" d="M306 664.375L449.473 624.6l33.756-378.14H306z"/><path fill="#EBEBEB" d="M306 410.604h-71.826l-4.96-55.584L306 341.5v-61.613h-.188l-135.92 20.853 1.3 14.562 13.34 149.58H306zM306 551.573l-.238.064-60.45-16.324-3.866-43.29h-54.489l7.605 85.227 111.188 30.866.25-.07z"/><path fill="#fff" d="M305.812 341.75l.253-.067 73.45 5.567-2.876 39h57.86l8.75-86-136.984-20.363-.266.073zM305.812 410.604v54.278h66.84l-6.3 70.397-60.54 16.34v56.47l111.276-30.84.817-9.17 12.755-142.9 1.325-14.576h-14.627z"/></svg>